<?xml version="1.0" standalone="no"?><!DOCTYPE svg PUBLIC "-//W3C//DTD SVG 1.1//EN" "http://www.w3.org/Graphics/SVG/1.1/DTD/svg11.dtd"><svg class="icon" width="200px" height="200.00px" viewBox="0 0 1024 1024" version="1.1" xmlns="http://www.w3.org/2000/svg"><path d="M335.11 394.953v429.173H140.031V394.953H335.11m39.015-78.031h-273.11c-21.546 0-39.016 17.47-39.016 39.016v507.204c0 21.547 17.469 39.016 39.016 39.016h273.11c21.546 0 39.016-17.469 39.016-39.016V355.938c0-21.546-17.469-39.016-39.016-39.016z" fill="#ffffff" /><path d="M610.049 199.875v624.251H414.97V199.875h195.079m39.015-78.032h-273.11c-21.546 0-39.016 17.47-39.016 39.017v702.282c0 21.547 17.47 39.016 39.016 39.016h273.11c21.547 0 39.016-17.469 39.016-39.016V160.859c0-21.546-17.469-39.016-39.016-39.016z" fill="#ffffff" /><path d="M883.969 590.032v234.094H688.89V590.032h195.079M922.984 512h-273.11c-21.546 0-39.016 17.47-39.016 39.017v312.125c0 21.547 17.47 39.016 39.016 39.016h273.11c21.547 0 39.016-17.469 39.016-39.016V551.017C962 529.47 944.531 512 922.984 512z" fill="#ffffff" /></svg>