<?xml version="1.0" standalone="no"?><!DOCTYPE svg PUBLIC "-//W3C//DTD SVG 1.1//EN" "http://www.w3.org/Graphics/SVG/1.1/DTD/svg11.dtd"><svg class="icon" width="200px" height="200.00px" viewBox="0 0 1024 1024" version="1.1" xmlns="http://www.w3.org/2000/svg"><path d="M896 192v73.6l64 54.4V160c0-19.2-12.8-32-32-32h-192l73.6 64H896zM544 64h-64L0 480v32c0 19.2 12.8 32 32 32h96v384c0 19.2 12.8 32 32 32h256c19.2 0 32-12.8 32-32v-288h128v288c0 19.2 12.8 32 32 32h256c19.2 0 32-12.8 32-32V544h96c19.2 0 32-12.8 32-32v-32L544 64z m320 416c-19.2 0-32 12.8-32 32v384h-192v-288c0-19.2-12.8-32-32-32h-192c-19.2 0-32 12.8-32 32v288H192V512c0-19.2-12.8-32-32-32H102.4L512 128l409.6 352H864z" fill="#ffffff" /></svg>