<?xml version="1.0" standalone="no"?><!DOCTYPE svg PUBLIC "-//W3C//DTD SVG 1.1//EN" "http://www.w3.org/Graphics/SVG/1.1/DTD/svg11.dtd"><svg class="icon" width="200px" height="200.00px" viewBox="0 0 1024 1024" version="1.1" xmlns="http://www.w3.org/2000/svg"><path d="M856 110.4h-688c-32 0-57.6 25.6-57.6 57.6v686.4c0 32 25.6 57.6 57.6 57.6h686.4c32 0 57.6-25.6 57.6-57.6V168c0-32-25.6-57.6-56-57.6z m8 744c0 4.8-4.8 9.6-9.6 9.6H168c-4.8 0-9.6-4.8-9.6-9.6V168c0-4.8 4.8-9.6 9.6-9.6h686.4c4.8 0 9.6 4.8 9.6 9.6v686.4z" fill="#ffffff" /><path d="M272 496h192c17.6 0 32-14.4 32-32V272c0-17.6-14.4-32-32-32H272c-17.6 0-32 14.4-32 32v192c0 17.6 14.4 32 32 32z m9.6-214.4h172.8v172.8H281.6V281.6zM761.6 592H260.8c-11.2 0-20.8 9.6-20.8 20.8 0 11.2 9.6 20.8 20.8 20.8h500.8c11.2 0 20.8-9.6 20.8-20.8 0-11.2-8-20.8-20.8-20.8zM761.6 454.4H579.2c-11.2 0-20.8 9.6-20.8 20.8 0 11.2 9.6 20.8 20.8 20.8h182.4c11.2 0 20.8-9.6 20.8-20.8 0-11.2-8-20.8-20.8-20.8zM761.6 316.8H579.2c-11.2 0-20.8 9.6-20.8 20.8 0 11.2 9.6 20.8 20.8 20.8h182.4c11.2 0 20.8-9.6 20.8-20.8 0-11.2-8-20.8-20.8-20.8zM761.6 729.6H260.8c-11.2 0-20.8 9.6-20.8 20.8 0 11.2 9.6 20.8 20.8 20.8h500.8c11.2 0 20.8-9.6 20.8-20.8 0-11.2-8-20.8-20.8-20.8z" fill="#ffffff" /></svg>